<?xml version="1.0" encoding="utf-8"?><svg viewBox="0 0 361 80" xmlns="http://www.w3.org/2000/svg" xmlns:xlink="http://www.w3.org/1999/xlink"><style>:root>svg{display:none}:root>svg:target{display:block}</style><svg fill="none" viewBox="0 0 135 39" id="app-store" xmlns="http://www.w3.org/2000/svg"><path fill-rule="evenodd" clip-rule="evenodd" d="M131.06 4.66c-1.07 0-1.52.97-1.6 1.68h3.02c.01-.64-.27-1.68-1.42-1.68zM63.75 8.42c0 .67.44.98.98.98.7 0 1.2-.45 1.37-.94.04-.13.04-.25.04-.38v-.94c-1.22-.02-2.4.24-2.4 1.28h.01zm33.3-3.69c-1.22 0-1.72 1.2-1.72 2.34 0 1.32.67 2.32 1.7 2.32 1 0 1.68-.96 1.68-2.35 0-1.07-.48-2.3-1.66-2.3v-.01zm-11.63-.07c-1.06 0-1.52.97-1.59 1.68h3.02c0-.64-.27-1.68-1.43-1.68zm-12.45.17c-.7 0-1.35.5-1.54 1.27-.03.12-.05.28-.05.45v1.1a1.58 1.58 0 0 0 1.58 1.62c1.08 0 1.74-.85 1.74-2.24 0-1.21-.58-2.2-1.73-2.2zm61.1 22.38h-8.87a3.835 3.835 0 0 0 1.29 3c.74.62 1.7.93 2.9.93 1.31 0 2.5-.2 3.58-.63l.47 2.06c-1.26.55-2.75.81-4.47.81-2.06 0-3.68-.6-4.85-1.81a6.723 6.723 0 0 1-1.77-4.89c0-2 .55-3.67 1.64-5.01a5.684 5.684 0 0 1 4.66-2.13c1.92 0 3.37.7 4.35 2.13a7.206 7.206 0 0 1 1.18 4.2c0 .52-.04.97-.11 1.34zm-12.2-20.83v4.1h-1.73V.5h1.73v4.06h.03c.2-.32.5-.59.85-.77.35-.2.76-.31 1.2-.31 1.17 0 2.4.77 2.4 2.97v4.04h-1.74V6.63c0-.98-.37-1.74-1.32-1.74-.68 0-1.16.45-1.35.97-.06.15-.07.33-.07.52zm-.45 16.06c-.3-.05-.6-.08-.93-.08a2.805 2.805 0 0 0-2.41 1.18 4.4 4.4 0 0 0-.74 2.62v6.98h-2.96v-9.12c0-1.52-.02-2.92-.07-4.18h2.57l.1 2.54h.09c.3-.87.8-1.57 1.48-2.1a3.54 3.54 0 0 1 2.13-.7c.28 0 .52 0 .74.04v2.82zm-7.59-18.8h.97V2.35l1.7-.48v1.76h1.65v1.3h-1.65v3.02c0 .85.23 1.27.89 1.27.3 0 .48-.02.68-.07l.02 1.3c-.25.1-.71.2-1.25.2-.65 0-1.17-.22-1.49-.57-.38-.4-.55-1.03-.55-1.93V4.93h-.97v-1.3.01zm-3.05 27.78a6.274 6.274 0 0 1-4.88 2.02 5.96 5.96 0 0 1-4.67-1.94 7.08 7.08 0 0 1-1.73-4.9c0-2.06.6-3.75 1.79-5.06a6.184 6.184 0 0 1 4.82-1.97c1.97 0 3.53.64 4.72 1.94a6.999 6.999 0 0 1 1.7 4.87 7.304 7.304 0 0 1-1.75 5.04zm-13.8-20.78c-1.93 0-3.43-1.32-3.43-3.53 0-2.25 1.47-3.63 3.54-3.63 2.04 0 3.4 1.43 3.4 3.52 0 2.52-1.77 3.64-3.51 3.64zm1.67 11.41h-3.27v6.47c0 1.64.58 2.45 1.73 2.45.53 0 .97-.03 1.32-.12l.08 2.23c-.58.22-1.35.33-2.3.33a3.52 3.52 0 0 1-2.73-1.06c-.67-.71-1-1.9-1-3.59v-6.7h-1.94v-2.22h1.95V17.4l2.9-.87v3.3h3.26v2.22zM88.23 31.8c-1.21 1.08-2.88 1.61-5.03 1.61a8.81 8.81 0 0 1-4.78-1.15l.69-2.46a8.25 8.25 0 0 0 4.26 1.15c1.12 0 1.98-.25 2.6-.75.62-.5.93-1.17.93-2.02 0-.74-.26-1.37-.76-1.88a7.24 7.24 0 0 0-2.55-1.42c-3.23-1.2-4.84-2.97-4.84-5.28 0-1.52.56-2.76 1.7-3.73A6.79 6.79 0 0 1 85 14.42c1.68 0 3.07.3 4.19.87l-.75 2.41a7.32 7.32 0 0 0-3.54-.85c-1.04 0-1.86.27-2.45.77-.49.46-.73 1.02-.73 1.67 0 .73.28 1.33.84 1.81.5.44 1.4.91 2.68 1.42a8.99 8.99 0 0 1 3.51 2.25 4.7 4.7 0 0 1 1.12 3.2c0 1.57-.55 2.85-1.63 3.83h-.01zM73.35 10.64c-.89 0-1.68-.34-2.17-1.18h-.03l-.08 1.03h-1.48c.03-.47.06-1.23.06-1.93V.5h1.73v4.08h.02a2.48 2.48 0 0 1 2.2-1.1c1.67 0 2.87 1.4 2.86 3.47 0 2.47-1.56 3.7-3.11 3.7v-.01zM71.32 31.7a5.421 5.421 0 0 1-4.1 1.74c-1.77 0-3.03-.63-3.8-1.89v6.99h-2.96V24.2c0-1.42-.03-2.88-.1-4.37h2.59l.17 2.1h.05a4.94 4.94 0 0 1 4.49-2.37c1.57 0 2.88.62 3.93 1.86a7.31 7.31 0 0 1 1.57 4.9c0 2.27-.61 4.05-1.84 5.37v.01zM58.05 10.49h1.73v-10h-1.73v10zm-1.35 21.2a5.42 5.42 0 0 1-4.1 1.75c-1.76 0-3.03-.63-3.8-1.89v6.99h-2.95V24.2c0-1.42-.04-2.88-.11-4.37h2.6l.16 2.1h.05a4.94 4.94 0 0 1 4.5-2.37c1.56 0 2.87.62 3.93 1.86a7.35 7.35 0 0 1 1.57 4.9c0 2.27-.61 4.05-1.85 5.37zM45.13 8.6c0-1.72 1.53-2.6 4.06-2.59V5.9c0-.45-.18-1.2-1.39-1.2-.68 0-1.38.21-1.84.51l-.34-1.13c.5-.3 1.4-.6 2.48-.6 2.19 0 2.82 1.4 2.82 2.9v2.46c0 .62.03 1.22.12 1.65h-1.57l-.12-.76h-.04a2.499 2.499 0 0 1-2.03.91c-1.38 0-2.15-1-2.15-2.04zm-3.57 1.89h-1.7l-2.55-6.86h1.88l1.1 3.48c.2.6.34 1.15.47 1.72h.05c.12-.57.28-1.1.46-1.72l1.1-3.48h1.81l-2.62 6.86zm-.67 22.65-1.72-5.41h-6l-1.64 5.41h-3.06L34.4 14.7h3.67l5.97 18.45H40.9l-.01-.01zM20 32.44a3.03 3.03 0 0 1-3.03 3.03h-13a3.03 3.03 0 0 1-3.03-3.02V3.57A3.04 3.04 0 0 1 3.98.54h13A3.04 3.04 0 0 1 20 3.57v28.88-.01zM31.53 1h2.2l3.09 9.49h-1.87l-.86-2.7h-3l-.82 2.7H28.5L31.53 1zm22.07 9.5h1.73V3.64H53.6v6.86zm.87-9.71c.6 0 .96.4.97.94 0 .5-.38.93-.98.93a.92.92 0 0 1-.96-.93c0-.53.4-.94.97-.94zM64.7 4.7c-.67 0-1.37.21-1.84.51l-.34-1.13c.51-.3 1.4-.6 2.48-.6 2.2 0 2.83 1.4 2.83 2.9v2.46c0 .62.03 1.22.11 1.65h-1.56l-.13-.76h-.04a2.5 2.5 0 0 1-2.02.91c-1.38 0-2.16-1-2.16-2.04 0-1.72 1.53-2.6 4.07-2.59V5.9c0-.45-.19-1.2-1.4-1.2zm13.73 5.79h1.73v-10h-1.73v10zm7.1-7.01c2.22 0 2.95 1.83 2.95 3.33 0 .33-.03.58-.06.74h-4.59c.05 1.23 1 1.77 2.11 1.77.8 0 1.37-.13 1.9-.31l.26 1.18c-.6.25-1.41.44-2.4.44-2.22 0-3.53-1.37-3.53-3.46 0-1.9 1.16-3.7 3.35-3.7l.01.01zm18.16.15.09 1.03h.04a2.51 2.51 0 0 1 2.2-1.18c1.2 0 2.43.77 2.43 2.94v4.07h-1.73V6.62c0-.99-.37-1.73-1.3-1.73-.7 0-1.18.49-1.36 1-.06.15-.08.36-.08.56v4.04h-1.73V5.67c0-.78-.03-1.45-.06-2.04h1.5zm27.47-.15c2.22 0 2.95 1.83 2.95 3.33 0 .33-.03.58-.06.74h-4.58c.04 1.23 1 1.77 2.1 1.77.81 0 1.37-.13 1.9-.31l.26 1.18c-.59.25-1.4.44-2.4.44-2.21 0-3.52-1.37-3.52-3.46 0-1.9 1.15-3.7 3.35-3.7v.01zm-98.1.67c-.18-.57-.34-1.22-.48-1.77h-.02c-.15.55-.3 1.21-.46 1.77l-.73 2.34h2.44l-.75-2.34zm16.13 4.31c.04-.13.04-.25.04-.38v-.94c-1.22-.02-2.39.24-2.39 1.28 0 .67.44.98.99.98.7 0 1.2-.45 1.36-.94zm79.24 13.13c-.97 0-1.75.41-2.36 1.2a4.401 4.401 0 0 0-.87 2.3h6.16a4.044 4.044 0 0 0-.58-2.27 2.6 2.6 0 0 0-2.35-1.23zm-92.27-4.43h-.05c-.2.78-.48 1.94-.88 3.47l-1.54 4.82h4.96l-1.56-4.82c-.17-.5-.48-1.65-.93-3.47zm30.54 4.76c-.73 0-1.38.24-1.98.72a3.4 3.4 0 0 0-1.16 1.9c-.1.38-.14.67-.14.91v2.22c0 .97.3 1.78.89 2.45.59.66 1.36 1 2.3 1 1.13 0 2-.43 2.61-1.29.63-.86.94-1.99.94-3.4 0-1.29-.3-2.36-.88-3.2a3.05 3.05 0 0 0-2.58-1.31zm39.3-.19c-1.18 0-2.08.53-2.7 1.59-.53.86-.8 1.93-.8 3.18 0 1.23.27 2.27.8 3.14a2.973 2.973 0 0 0 2.69 1.58c1.12 0 2-.53 2.64-1.61.55-.88.83-1.94.83-3.16 0-1.22-.27-2.27-.8-3.14a2.94 2.94 0 0 0-2.65-1.58H106zm-53.92.19c-.72 0-1.38.24-1.98.72a3.4 3.4 0 0 0-1.16 1.9c-.1.38-.14.67-.14.91v2.22c0 .97.3 1.78.9 2.45.58.66 1.36 1 2.3 1 1.11 0 1.99-.43 2.6-1.29.63-.86.93-1.99.93-3.4 0-1.29-.28-2.36-.87-3.2a3.05 3.05 0 0 0-2.58-1.31zm-49.3 7.46h15.38V6.64H2.78v22.74zm7.7 1.35a1.57 1.57 0 0 0 0 3.13 1.57 1.57 0 0 0 0-3.13zM8.97 4.33h3c.2 0 .37-.17.37-.36 0-.2-.16-.36-.36-.36H8.97c-.2 0-.36.16-.36.36 0 .2.16.35.36.35v.01z" fill="#FB3B2D"/></svg><svg fill="none" viewBox="0 0 153 37" id="google-play" xmlns="http://www.w3.org/2000/svg"><path fill-rule="evenodd" clip-rule="evenodd" d="M42.72 3.06c-.234-.65-.434-1.31-.6-1.98h-.06c0 .09-.21.75-.63 1.98h1.29zm1.64 2h-1.14c0-.16-.1-.6-.32-1.33h-1.64a6.866 6.866 0 0 0-.33 1.33h-1.07c0-.1.28-.85.83-2.27.55-1.42.83-2.2.83-2.35h1.34c0 .14.25.9.75 2.32.5 1.4.75 2.17.75 2.3zm4.57 0h-.87c0-.1-.33-.6-.98-1.54a8.45 8.45 0 0 1-1.16-2h-.06c.06.52.09.99.09 1.4 0 .59.01 1.3.05 2.14h-.87c.07-1.54.07-3.08 0-4.62h1.05c0 .13.3.63.88 1.5a8.797 8.797 0 0 1 1.07 1.9h.05c-.06-.54-.09-1-.09-1.43 0-.64-.01-1.3-.05-1.97h.9a53.28 53.28 0 0 0 0 4.62h-.01zm4.17-2.32c0-.45-.13-.83-.4-1.14-.26-.31-.66-.47-1.2-.47l-.42.03c.02.47.03.97.03 1.48 0 .57.01 1.13.04 1.69.15.03.3.04.46.04.5 0 .88-.16 1.13-.47.24-.32.36-.7.36-1.16zm.97-.15c0 .67-.21 1.26-.64 1.76-.43.5-1.04.75-1.81.75-.35 0-.83-.01-1.45-.04a58.34 58.34 0 0 0 0-4.62h.62c.284.002.567-.005.85-.02.85 0 1.47.21 1.86.64.38.42.57.94.57 1.53zm3.41-.79c0-.47-.3-.71-.9-.71-.23 0-.42.02-.6.05.03.37.05.84.05 1.43l.33.01c.75 0 1.12-.26 1.12-.78zm1.33 3.26h-1.05a6.958 6.958 0 0 0-.63-1.55c-.14-.2-.38-.3-.7-.3h-.4c0 .62.01 1.23.03 1.85h-.98a56.49 56.49 0 0 0 0-4.62h.61a17.5 17.5 0 0 0 1.07-.02c1.09 0 1.63.37 1.63 1.11 0 .6-.31 1-.93 1.24v.05c.24.06.45.25.63.56.18.3.42.86.72 1.68zm4.11-2.29c0-.5-.13-.9-.38-1.2a1.15 1.15 0 0 0-.94-.46c-.34 0-.63.15-.88.46-.24.3-.36.7-.36 1.17 0 .5.13.9.38 1.2.26.31.57.47.94.47.34 0 .64-.16.88-.47.24-.31.36-.7.36-1.17zm.98-.1c0 .72-.22 1.32-.67 1.8-.44.48-1 .72-1.65.72-.62 0-1.14-.22-1.56-.66-.43-.44-.64-1-.64-1.67 0-.73.23-1.33.67-1.8.45-.49 1-.72 1.65-.72.62 0 1.15.21 1.57.65.42.44.63 1 .63 1.68zm2 2.39h-1a57.4 57.4 0 0 0 0-4.62h1a56.58 56.58 0 0 0 0 4.62zm4.18-2.32c0-.45-.13-.83-.4-1.14-.26-.31-.67-.47-1.21-.47l-.42.03c.02.47.04.97.04 1.48 0 .57 0 1.13.03 1.69.15.03.3.04.46.04.51 0 .89-.16 1.13-.47.25-.32.37-.7.37-1.16zm.97-.15c0 .67-.22 1.26-.65 1.76-.43.5-1.03.75-1.8.75-.36 0-.84-.01-1.46-.04a56.49 56.49 0 0 0 0-4.62h.63c.28.002.56-.005.84-.02.86 0 1.48.21 1.86.64.38.42.58.94.58 1.53zm5.18.47c-.234-.65-.434-1.31-.6-1.98h-.06c0 .09-.21.75-.63 1.98h1.29zm1.64 2h-1.14c0-.16-.1-.6-.32-1.33h-1.64a6.897 6.897 0 0 0-.33 1.33h-1.07c0-.1.28-.85.83-2.27.55-1.42.83-2.2.83-2.35h1.34c0 .14.25.9.75 2.32.5 1.4.75 2.17.75 2.3zm3.23-3.21c0-.51-.34-.76-1.02-.76-.16 0-.34.02-.53.05.03.45.04.95.04 1.52h.2c.87 0 1.3-.27 1.3-.81h.01zm.9-.2c0 .57-.2.98-.62 1.25a2.8 2.8 0 0 1-1.79.4c0 .45.02 1.03.04 1.76h-1a55.87 55.87 0 0 0 0-4.62h.62c.383.004.767-.003 1.15-.02.45 0 .83.1 1.14.3.31.2.47.52.47.93H82zm3.35.2c0-.51-.34-.76-1.01-.76-.17 0-.35.02-.53.05.02.45.04.95.04 1.52h.2c.86 0 1.3-.27 1.3-.81zm.91-.2c0 .57-.2.98-.63 1.25a2.8 2.8 0 0 1-1.78.4c0 .45.01 1.03.04 1.76h-1a55.87 55.87 0 0 0 0-4.62h.62c.383.004.767-.003 1.15-.02.45 0 .83.1 1.14.3.3.2.46.52.46.93zm5.98 1.12c0-.5-.13-.9-.38-1.2-.25-.31-.57-.46-.94-.46-.34 0-.64.15-.88.46-.24.3-.36.7-.36 1.17 0 .5.13.9.38 1.2.26.31.57.47.94.47.34 0 .64-.16.88-.47.24-.31.36-.7.36-1.17zm.98-.1c0 .72-.22 1.32-.67 1.8-.44.48-1 .72-1.65.72-.62 0-1.15-.22-1.57-.66-.42-.44-.63-1-.63-1.67 0-.73.22-1.33.67-1.8.44-.49 1-.72 1.65-.72.62 0 1.15.21 1.57.65.42.44.63 1 .63 1.68zm4.81 2.39h-.88c0-.1-.33-.6-.98-1.54a8.43 8.43 0 0 1-1.16-2h-.06c.06.52.1.99.1 1.4 0 .59 0 1.3.04 2.14h-.87c.07-1.54.07-3.08 0-4.62h1.05c0 .13.3.63.88 1.5a8.797 8.797 0 0 1 1.07 1.9h.05c-.05-.54-.08-1-.08-1.43 0-.64-.02-1.3-.05-1.97h.89a53.28 53.28 0 0 0 0 4.62zm-41.85 14.8c0 2.29-.68 4.12-2.04 5.48a7.951 7.951 0 0 1-6.03 2.43 8.261 8.261 0 0 1-6.04-2.47 8.259 8.259 0 0 1-2.49-6.1c0-2.44.83-4.47 2.49-6.12a8.26 8.26 0 0 1 6.04-2.46c1.17 0 2.3.23 3.37.69a6.77 6.77 0 0 1 2.56 1.83L52.6 14.6a5.539 5.539 0 0 0-4.5-1.95c-1.72 0-3.21.6-4.47 1.82a6.28 6.28 0 0 0-1.9 4.73c0 1.95.63 3.52 1.9 4.74a6.243 6.243 0 0 0 4.48 1.82c1.83 0 3.36-.61 4.58-1.83.8-.8 1.25-1.9 1.38-3.33H48.1v-1.97h7.95a7 7 0 0 1 .12 1.24l.01-.01zm4.07 4.87a3.49 3.49 0 0 0 2.57 1.11c1 0 1.86-.37 2.58-1.11a4.032 4.032 0 0 0 1.1-2.95c0-1.22-.37-2.2-1.1-2.94a3.5 3.5 0 0 0-2.58-1.11c-.99 0-1.85.37-2.57 1.1a4.03 4.03 0 0 0-1.1 2.95c0 1.23.37 2.2 1.1 2.95zm-1.57-7.22a5.478 5.478 0 0 1 4.14-1.7c1.69 0 3.07.56 4.16 1.7a5.949 5.949 0 0 1 1.62 4.27c0 1.72-.54 3.14-1.63 4.28a5.48 5.48 0 0 1-4.15 1.7 5.481 5.481 0 0 1-4.14-1.7 5.95 5.95 0 0 1-1.63-4.28c0-1.7.54-3.13 1.63-4.27zm13.83 7.22a3.491 3.491 0 0 0 2.58 1.11c1 0 1.85-.37 2.58-1.11a4.03 4.03 0 0 0 1.09-2.95c0-1.22-.37-2.2-1.1-2.94a3.5 3.5 0 0 0-2.57-1.11c-1 0-1.85.37-2.58 1.1a4.03 4.03 0 0 0-1.09 2.95c0 1.23.36 2.2 1.1 2.95h-.01zm-1.57-7.22a5.48 5.48 0 0 1 4.15-1.7c1.68 0 3.06.56 4.15 1.7a5.951 5.951 0 0 1 1.63 4.27c0 1.72-.55 3.14-1.63 4.28a5.48 5.48 0 0 1-4.15 1.7 5.48 5.48 0 0 1-4.15-1.7 5.95 5.95 0 0 1-1.63-4.28c0-1.7.54-3.13 1.63-4.27zm16.32 8.33c1 0 1.84-.37 2.54-1.1a4.12 4.12 0 0 0 1.04-2.96c0-1.23-.35-2.22-1.04-2.95a3.358 3.358 0 0 0-2.54-1.1c-.98 0-1.82.37-2.52 1.1a4.1 4.1 0 0 0-1.05 2.95c0 1.23.35 2.2 1.05 2.95.7.74 1.54 1.11 2.52 1.11zm-.16 6.88a5.09 5.09 0 0 1-3.25-1 5.86 5.86 0 0 1-1.81-2.28l1.92-.8c.22.6.6 1.12 1.18 1.53.57.42 1.23.62 1.96.62 1.16 0 2.08-.35 2.74-1.04.67-.7 1-1.64 1-2.83v-1.08h-.1c-.36.55-.88 1.01-1.55 1.38a4.94 4.94 0 0 1-6.03-1.17 6.06 6.06 0 0 1-1.58-4.27c0-1.7.52-3.11 1.58-4.26a4.95 4.95 0 0 1 6.03-1.17c.67.37 1.19.83 1.56 1.38h.09v-1.56h2.02v10.66c0 1.92-.56 3.39-1.68 4.39a5.9 5.9 0 0 1-4.08 1.5zm7.75-5.32h2.11V10.99h-2.1l-.01 16.41zm12.1-6.97a3.002 3.002 0 0 0-.88-1.83c-.54-.58-1.35-.87-2.42-.87-.78 0-1.45.24-2.03.73a3.75 3.75 0 0 0-1.18 1.97h6.51zm-3.02 7.34c-1.7 0-3.08-.57-4.14-1.7a6.01 6.01 0 0 1-1.6-4.29c0-1.63.52-3.04 1.55-4.22a5.022 5.022 0 0 1 3.96-1.76c1.66 0 3 .54 4 1.63 1 1.08 1.5 2.54 1.5 4.35l-.02.4h-8.87a3.799 3.799 0 0 0 1.13 2.67c.7.66 1.5 1 2.44 1 1.51 0 2.54-.65 3.07-1.93l1.88.77c-.36.88-.97 1.6-1.8 2.2-.85.58-1.88.88-3.1.88zm13.57-9.04h3.53c.88 0 1.6-.3 2.13-.89.54-.6.8-1.25.8-1.97s-.26-1.38-.8-1.97c-.53-.6-1.25-.9-2.13-.9h-3.53v5.73zm0 8.67h-2.11V10.99h5.6c1.38 0 2.59.46 3.6 1.38a4.52 4.52 0 0 1 1.53 3.5c0 1.4-.51 2.57-1.53 3.5a5.189 5.189 0 0 1-3.6 1.38h-3.5v6.65h.01zm10 0h2.1V10.99h-2.1V27.4zm7.88-1.56c.87 0 1.66-.32 2.37-.97a3.03 3.03 0 0 0 1.07-2.3c-.6-.5-1.5-.74-2.68-.74-1.03 0-1.8.22-2.32.66a2.003 2.003 0 0 0-.78 1.56c0 .55.24.99.71 1.31.47.32 1.02.48 1.63.48zm-.34 1.93c-1.2 0-2.2-.35-3-1.04-.8-.68-1.2-1.6-1.2-2.72 0-1.23.47-2.18 1.42-2.88a5.759 5.759 0 0 1 3.5-1.04c1.25 0 2.26.23 3.06.68v-.32a2.5 2.5 0 0 0-.85-1.98 3.04 3.04 0 0 0-2.09-.74c-.6 0-1.16.14-1.66.43-.5.3-.84.69-1.02 1.2l-1.93-.83c.26-.67.78-1.3 1.54-1.87a4.919 4.919 0 0 1 3.03-.86 5.2 5.2 0 0 1 3.57 1.26 4.505 4.505 0 0 1 1.42 3.55v6.79h-2.01v-1.56h-.1a4.144 4.144 0 0 1-3.69 1.93h.01zm10.38 4.58h-2.18l2.61-5.66-4.63-10.52h2.3l3.34 8.07h.05l3.25-8.07h2.3l-7.04 16.18zM.24 18.91V3.2c0-.65.12-1.23.58-1.72.18-.19.3-.24.52-.02l10.6 10.79 6.88 6.97c.22.22.24.34 0 .57a6488.262 6488.262 0 0 0-16.84 16.8c-.34.34-.58.3-.91.05a2.13 2.13 0 0 1-.83-1.81V18.91zM2.26.87c.43 0 .73.12 1.02.29l21.54 12.06c.33.18.33.29.07.54l-4.79 4.76c-.17.18-.28.28-.5.04L2.43 1.1 2.25.87h.01zm1.6 35.58C9.08 31.18 14.3 25.9 19.5 20.63c.32-.32.47-.28.76.02a309.158 309.158 0 0 0 4.01 4.08c.24.24.26.34-.06.51l-20.07 11c-.1.07-.2.17-.27.2l-.01.01zm29.78-17.39c-.03.6-.3 1-.73 1.32-.3.23-.65.42-1 .6l-6.06 3.36c-.28.15-.44.14-.66-.1-1.44-1.48-2.89-2.95-4.35-4.41-.2-.21-.22-.33 0-.55 1.7-1.67 3.39-3.35 5.07-5.04.2-.2.34-.22.59-.08l6 3.37c.63.35 1.11.8 1.14 1.53z" fill="#FB3B2D"/></svg><svg fill="none" viewBox="0 0 361 80" id="logo" xmlns="http://www.w3.org/2000/svg"><path d="M349.626 0c-11.257-.071-27.439 6.886-37.385 7.108-14.801.33-18.857-7.54-25.063-3.514-6.06 4.649 2.273 16.5 3.723 18.157.585.752 1.213 1.47 1.882 2.148l-.033.03a47.496 47.496 0 0 0-6.959 8.065 48.205 48.205 0 0 0-3.77 6.208 50.457 50.457 0 0 0-4.261 12.251c-.92 4.49-1.231 9.079-.447 13.61.701 4.047 2.574 8.053 5.69 10.796 3.489 3.07 8.102 4.608 12.724 4.765a19.891 19.891 0 0 0 11.922-3.482c4.143-2.868 7.149-7.013 9.114-11.614a44.978 44.978 0 0 0 2.769-8.949c.699-3.47 1.435-6.933 2.403-10.334a39.54 39.54 0 0 1 1.373-4.08 18.669 18.669 0 0 1 1.95-3.438c.186-.23.382-.456.592-.675a53.749 53.749 0 0 0 7.164-.622 42.066 42.066 0 0 0 9.409-2.69 31.543 31.543 0 0 0 4.8-2.371c6.326-3.686 17.517-13.683 14.076-24.634-1.85-4.99-6.173-6.7-11.673-6.735zM107.013 3.57c-11.313 0-18.92 5.97-18.852 14.415 0 18.605 25.983 11.191 25.983 19.772 0 2.54-2.536 3.852-7.131 3.852-4.8 0-7.06-1.648-7.128-4.874H87.409c0 9.68 6.924 15.034 19.127 15.034 11.86 0 19.95-5.286 19.95-14.003 0-19.496-25.98-11.947-25.98-20.047 0-2.54 2.122-3.98 6.374-3.98 4.317 0 6.305 1.577 6.305 4.942h12.547c0-9.404-7.061-15.11-18.716-15.11h-.003zM0 4.196v10.296h12.51v36.797h12.48v-36.8h12.576V4.196H0zm129.7 0v10.296h12.513v36.797h12.475v-36.8h12.582V4.196H129.7zm45.539 0v47.093h34.549V41.126h-22.074v-8.58h18.716v-9.814h-18.716v-8.376h21.734V4.196h-34.209zm-122.35.003-16.327 47.09h12.475l2.604-8.717h17.21l2.603 8.717h12.547L67.684 4.199H52.89zm164.726.011v47.08h12.478V35.496h6.102l4.32 8.504c2.331 4.602 5.14 7.62 12.614 7.62 1.757.025 3.509-.19 5.208-.636v-9.375a9.09 9.09 0 0 1-2.672.34c-1.775 0-2.959-.752-3.906-2.607l-3.157-6.305c4.734-2.607 7.693-7.07 7.693-13.18 0-9.955-6.581-15.65-18.642-15.65l-20.038.003zM60.284 14.015l5.755 19.22H54.455l5.829-19.22zm169.809.204h7.543c3.974 0 6.03 2.335 6.03 5.906 0 3.635-2.056 5.834-6.03 5.834h-7.543v-11.74zm84.412 4.679c-.257.112-.515.222-.769.34a38.793 38.793 0 0 0-7.966 5.038 33.19 33.19 0 0 0-5.587 5.558 72.572 72.572 0 0 0-6.634 10.37l-.109.205c-.645 1.233-.355 2.948.953 3.639 1.225.648 2.959.36 3.633-.955a78.784 78.784 0 0 1 4.208-7.07 56.827 56.827 0 0 1 1.908-2.69 33.705 33.705 0 0 1 5.563-5.44 35.97 35.97 0 0 1 7.321-4.326 33.923 33.923 0 0 1 7.948-2.177c1.72-.216 3.46-.233 5.184-.05 1.138.189 2.253.498 3.326.924.85.37 1.66.83 2.415 1.369.296.252.574.524.828.817.101.155.193.297.278.472.045.13.083.263.113.397 0 .127 0 .251-.006.379-.039.175-.089.35-.148.521-.053.172-.163.297-.255.445-.171.192-.355.37-.547.539-.358.24-.735.452-1.127.631-2.258.86-4.711 1.096-7.004 1.858A14.496 14.496 0 0 0 324 31.63a14.963 14.963 0 0 0-3.642 3.825c-1.707 2.507-2.731 5.464-3.551 8.364-.888 3.15-1.595 6.35-2.246 9.556a47.626 47.626 0 0 1-2.5 8.705 28.931 28.931 0 0 1-3.314 5.775 21.583 21.583 0 0 1-3.303 3.333 18.13 18.13 0 0 1-3.385 1.988c-1.19.471-2.428.81-3.693 1.008-1.384.16-2.781.16-4.163 0a19.578 19.578 0 0 1-4.175-1.111 15.36 15.36 0 0 1-2.847-1.639 14.27 14.27 0 0 1-2-2.003 15.432 15.432 0 0 1-1.66-2.886 20.581 20.581 0 0 1-1.154-4.385 32.04 32.04 0 0 1 .083-7.736 46.601 46.601 0 0 1 3.128-11.286 45.67 45.67 0 0 1 4.015-7.313 59.542 59.542 0 0 1 2.16-3.016 42.548 42.548 0 0 1 7.191-7.164c2.627-2.003 5.456-3.867 8.486-5.192a23.592 23.592 0 0 1 5.231-1.463 15.336 15.336 0 0 1 1.844-.092z" fill="#000"/></svg></svg>